<?xml version="1.0" encoding="UTF-8" standalone="no"?>
<!-- Created with Inkscape (http://www.inkscape.org/) -->

<svg
   width="210mm"
   height="297mm"
   viewBox="0 0 210 297"
   version="1.1"
   id="svg1"
   inkscape:version="1.3.2 (091e20ef0f, 2023-11-25)"
   sodipodi:docname="CandD.pdf"
   xmlns:inkscape="http://www.inkscape.org/namespaces/inkscape"
   xmlns:sodipodi="http://sodipodi.sourceforge.net/DTD/sodipodi-0.dtd"
   xmlns="http://www.w3.org/2000/svg"
   xmlns:svg="http://www.w3.org/2000/svg">
  <sodipodi:namedview
     id="namedview1"
     pagecolor="#ffffff"
     bordercolor="#000000"
     borderopacity="0.25"
     inkscape:showpageshadow="2"
     inkscape:pageopacity="0.0"
     inkscape:pagecheckerboard="0"
     inkscape:deskcolor="#d1d1d1"
     inkscape:document-units="mm"
     inkscape:zoom="1.6831681"
     inkscape:cx="421.22947"
     inkscape:cy="559.06478"
     inkscape:window-width="1600"
     inkscape:window-height="872"
     inkscape:window-x="0"
     inkscape:window-y="0"
     inkscape:window-maximized="1"
     inkscape:current-layer="g10" />
  <defs
     id="defs1">
    <inkscape:path-effect
       effect="simplify"
       id="path-effect2"
       is_visible="true"
       lpeversion="1.3"
       threshold="4.9"
       steps="1"
       smooth_angles="360"
       helper_size="10"
       simplify_individual_paths="false"
       simplify_just_coalesce="false" />
    <inkscape:path-effect
       effect="simplify"
       id="path-effect1"
       is_visible="true"
       lpeversion="1.3"
       threshold="374.419"
       steps="1"
       smooth_angles="360"
       helper_size="0"
       simplify_individual_paths="false"
       simplify_just_coalesce="false" />
  </defs>
  <g
     inkscape:label="Layer 1"
     inkscape:groupmode="layer"
     id="layer1">
    <path
       style="opacity:1;fill:#00ffff;stroke:#000000;stroke-width:0.309999"
       d="m 40.870348,159.70874 c -0.918556,-4.4478 -1.287138,-9.00207 -1.221951,-13.53889 0.05987,-4.16661 0.412303,-8.35862 1.456679,-12.40076 0.62486,-2.41845 1.453176,-4.83505 2.882037,-6.90435 0.775644,-1.1233 1.764723,-2.08933 2.845521,-2.91689 1.28606,-0.98473 2.826905,-1.65731 4.449577,-1.8154 1.851896,-0.18041 3.676349,0.28086 5.482763,0.61594 0.988607,0.18338 1.992242,0.27465 2.999333,0.27647 2.181799,0.004 4.365711,0.20275 6.502162,0.65395 2.284173,0.48239 4.530137,1.13276 6.747343,1.85765 3.501336,1.14473 6.923479,2.5245 10.274818,4.04977 2.923037,1.33035 5.85296,2.68441 8.564187,4.41082 1.442286,0.9184 2.930855,1.76044 4.390286,2.65061 1.263754,0.77082 2.444851,1.681 3.476327,2.74545 1.32369,1.366 2.50829,2.86376 3.58675,4.42738 1.79258,2.59903 3.31236,5.37661 4.70384,8.2067 1.93617,3.93789 3.69136,7.979 4.99914,12.17061 0.72328,2.31822 1.31746,4.69222 1.51403,7.12198 0.15147,1.87219 0.37202,3.74552 0.33441,5.62686 -0.0261,1.30634 -0.27873,2.62153 -0.86573,3.79744 -0.72924,1.46082 -1.79932,2.7189 -2.92227,3.88885 -2.37392,2.4733 -5.45516,4.18154 -8.69967,5.22722 -4.163001,1.3417 -8.58654,1.70422 -12.937212,1.5146 -2.879107,-0.12549 -5.707766,-0.78067 -8.459955,-1.59932 -5.021302,-1.49362 -9.880153,-3.49509 -14.599616,-5.75758 -4.158337,-1.99349 -8.250851,-4.14545 -12.131316,-6.64142 -2.055524,-1.32214 -4.031615,-2.77778 -5.846038,-4.41672 -1.4109,-1.27445 -2.700378,-2.71856 -3.593293,-4.40995 -0.557812,-1.05662 -1.028802,-2.15669 -1.645494,-3.1842 -0.804821,-1.34097 -1.558967,-2.73407 -1.963939,-4.25645 -0.123174,-0.46303 -0.224094,-0.93161 -0.322719,-1.40037 z"
       id="path1"
       sodipodi:nodetypes="szzzzzzsszzs"
       inkscape:path-effect="#path-effect2"
       inkscape:original-d="m 40.870348,159.70874 c -2.358473,-11.2357 -1.487631,-28.14401 4.111571,-34.08184 5.599202,-5.93783 9.772882,-2.59627 14.406378,-2.60284 4.633496,-0.007 7.405143,0.59543 12.958474,2.30216 5.553331,1.70673 14.760479,5.6893 19.80641,8.85737 5.045931,3.16807 6.405864,3.1696 10.740209,9.06041 4.33435,5.89081 10.95423,20.21375 11.57911,27.49091 0.62488,7.27716 1.03762,9.0899 -3.15383,13.63366 -4.19145,4.54376 -11.415401,7.46175 -22.009953,7.00093 -10.594552,-0.46081 -30.168901,-10.28837 -37.411447,-15.59274 -7.242546,-5.30437 -6.89882,-7.37996 -8.603578,-10.18508 -1.704758,-2.80512 -1.987662,-3.80736 -2.423344,-5.88294 z"
       transform="translate(31.595923,-13.990235)" />
    <g
       inkscape:label=""
       transform="translate(111.45, 147.919)"
       id="g7">
      <g
         fill="#000000"
         fill-opacity="1"
         id="g2"
         transform="matrix(0.352778,0,0,0.352778,-5.4196023,-7.5854067)">
        <g
           id="use1"
           transform="translate(1.993,11.795)">
          <path
             d="m 2.25,-1.0625 c -0.125,0.5 -0.15625,0.640625 -1.15625,0.640625 -0.28125,0 -0.421875,0 -0.421875,0.265625 C 0.671875,0 0.765625,0 1.046875,0 H 5.59375 c 2.890625,0 5.71875,-3 5.71875,-6.203125 0,-2.0625 -1.234375,-3.59375 -3.28125,-3.59375 H 3.421875 c -0.265625,0 -0.390625,0 -0.390625,0.265625 0,0.15625 0.125,0.15625 0.34375,0.15625 0.875,0 0.875,0.109375 0.875,0.265625 0,0.03125 0,0.109375 -0.0625,0.328125 z m 3.03125,-7.765625 c 0.125,-0.53125 0.1875,-0.546875 0.75,-0.546875 h 1.578125 c 1.34375,0 2.578125,0.71875 2.578125,2.703125 0,0.71875 -0.296875,3.21875 -1.6875,4.796875 -0.390625,0.46875 -1.484375,1.453125 -3.140625,1.453125 h -1.625 c -0.203125,0 -0.234375,0 -0.328125,-0.015625 -0.15625,0 -0.171875,-0.03125 -0.171875,-0.15625 0,-0.09375 0.03125,-0.1875 0.0625,-0.3125 z m 0,0"
             id="path2" />
        </g>
      </g>
    </g>
    <g
       inkscape:label=""
       transform="translate(111.45, 147.919)"
       id="g10">
      <g
         fill="#000000"
         fill-opacity="1"
         id="g9"
         transform="matrix(0.352778,0,0,0.352778,-33.451524,13.939099)">
        <g
           id="g8"
           transform="translate(1.993,11.795)">
          <path
             d="m 10.71875,-9.96875 c 0,-0.125 -0.109375,-0.125 -0.140625,-0.125 -0.01563,0 -0.07813,0 -0.1875,0.140625 l -1,1.203125 c -0.5,-0.859375 -1.28125,-1.34375 -2.359375,-1.34375 -3.09375,0 -6.3125,3.140625 -6.3125,6.515625 0,2.390625 1.671875,3.875 3.765625,3.875 1.15625,0 2.15625,-0.484375 2.984375,-1.1875 1.25,-1.046875 1.625,-2.4375 1.625,-2.546875 0,-0.140625 -0.109375,-0.140625 -0.15625,-0.140625 -0.125,0 -0.140625,0.09375 -0.171875,0.15625 -0.65625,2.234375 -2.59375,3.3125 -4.03125,3.3125 -1.515625,0 -2.84375,-0.984375 -2.84375,-3.015625 0,-0.453125 0.140625,-2.953125 1.765625,-4.828125 0.796875,-0.921875 2.140625,-1.734375 3.5,-1.734375 1.578125,0 2.28125,1.3125 2.28125,2.78125 0,0.359375 -0.046875,0.6875 -0.046875,0.734375 0,0.140625 0.140625,0.140625 0.1875,0.140625 0.15625,0 0.171875,-0.015625 0.234375,-0.28125 z m 0,0"
             id="path7" />
        </g>
      </g>
    </g>
  </g>
</svg>
