<?xml version="1.0" encoding="UTF-8" standalone="no"?>
<!-- Created with Inkscape (http://www.inkscape.org/) -->

<svg
   width="210mm"
   height="297mm"
   viewBox="0 0 210 297"
   version="1.1"
   id="svg1"
   inkscape:version="1.3.2 (091e20e, 2023-11-25, custom)"
   sodipodi:docname="cells.svg"
   xmlns:inkscape="http://www.inkscape.org/namespaces/inkscape"
   xmlns:sodipodi="http://sodipodi.sourceforge.net/DTD/sodipodi-0.dtd"
   xmlns="http://www.w3.org/2000/svg"
   xmlns:svg="http://www.w3.org/2000/svg">
  <sodipodi:namedview
     id="namedview1"
     pagecolor="#ffffff"
     bordercolor="#000000"
     borderopacity="0.25"
     inkscape:showpageshadow="2"
     inkscape:pageopacity="0.0"
     inkscape:pagecheckerboard="0"
     inkscape:deskcolor="#d1d1d1"
     inkscape:document-units="mm"
     inkscape:zoom="1.4912879"
     inkscape:cx="311.14046"
     inkscape:cy="375.17907"
     inkscape:window-width="1920"
     inkscape:window-height="1051"
     inkscape:window-x="-9"
     inkscape:window-y="-9"
     inkscape:window-maximized="1"
     inkscape:current-layer="layer1" />
  <defs
     id="defs1">
    <inkscape:path-effect
       effect="simplify"
       id="path-effect8"
       is_visible="true"
       lpeversion="1.3"
       threshold="100"
       steps="1"
       smooth_angles="360"
       helper_size="10"
       simplify_individual_paths="false"
       simplify_just_coalesce="false" />
    <inkscape:path-effect
       effect="simplify"
       id="path-effect6"
       is_visible="true"
       lpeversion="1.3"
       threshold="100"
       steps="1"
       smooth_angles="360"
       helper_size="0"
       simplify_individual_paths="false"
       simplify_just_coalesce="false" />
    <inkscape:path-effect
       effect="fillet_chamfer"
       id="path-effect5"
       is_visible="true"
       lpeversion="1"
       nodesatellites_param="F,0,0,1,0,5.0270833,0,1 @ F,0,0,1,0,5.0270833,0,1 @ F,0,0,1,0,5.0270833,0,1 @ F,0,0,1,0,5.0270833,0,1 @ F,0,0,1,0,5.0270833,0,1 @ F,0,0,1,0,5.0270833,0,1 @ F,0,0,1,0,5.0270833,0,1 @ F,0,0,1,0,5.0270833,0,1 @ F,0,0,1,0,5.0270833,0,1 @ F,0,0,1,0,5.0270833,0,1 @ F,0,0,1,0,5.0270833,0,1 @ F,0,0,1,0,5.0270833,0,1 @ F,0,0,1,0,5.0270833,0,1 @ F,0,0,1,0,5.0270833,0,1 @ F,0,0,1,0,5.0270833,0,1 @ F,0,0,1,0,5.0270833,0,1 @ F,0,0,1,0,5.0270833,0,1 @ F,0,0,1,0,5.0270833,0,1 @ F,0,0,1,0,5.0270833,0,1 @ F,0,0,1,0,5.0270833,0,1 @ F,0,0,1,0,5.0270833,0,1 @ F,0,0,1,0,5.0270833,0,1 @ F,0,0,1,0,5.0270833,0,1 @ F,0,0,1,0,5.0270833,0,1 @ F,0,0,1,0,5.0270833,0,1 @ F,0,0,1,0,5.0270833,0,1 @ F,0,0,1,0,5.0270833,0,1 @ F,0,0,1,0,5.0270833,0,1 @ F,0,0,1,0,5.0270833,0,1 @ F,0,0,1,0,5.0270833,0,1 @ F,0,0,1,0,5.0270833,0,1 @ F,0,0,1,0,5.0270833,0,1 @ F,0,0,1,0,5.0270833,0,1 @ F,0,0,1,0,5.0270833,0,1 @ F,0,0,1,0,5.0270833,0,1 @ F,0,0,1,0,5.0270833,0,1 @ F,0,0,1,0,5.0270833,0,1 @ F,0,0,1,0,5.0270833,0,1 @ F,0,0,1,0,5.0270833,0,1 @ F,0,0,1,0,5.0270833,0,1 @ F,0,0,1,0,5.0270833,0,1 @ F,0,0,1,0,5.0270833,0,1 @ F,0,0,1,0,5.0270833,0,1 @ F,0,0,1,0,5.0270833,0,1 @ F,0,0,1,0,5.0270833,0,1 @ F,0,0,1,0,5.0270833,0,1 @ F,0,0,1,0,5.0270833,0,1"
       radius="19"
       unit="px"
       method="auto"
       mode="F"
       chamfer_steps="1"
       flexible="false"
       use_knot_distance="true"
       apply_no_radius="true"
       apply_with_radius="true"
       only_selected="false"
       hide_knots="false" />
    <inkscape:path-effect
       effect="simplify"
       id="path-effect4"
       is_visible="true"
       lpeversion="1.3"
       threshold="5"
       steps="1"
       smooth_angles="360"
       helper_size="10"
       simplify_individual_paths="false"
       simplify_just_coalesce="false" />
    <inkscape:path-effect
       effect="simplify"
       id="path-effect3"
       is_visible="true"
       lpeversion="1.3"
       threshold="2.3907143"
       steps="1"
       smooth_angles="360"
       helper_size="10"
       simplify_individual_paths="false"
       simplify_just_coalesce="false" />
  </defs>
  <g
     inkscape:label="Layer 1"
     inkscape:groupmode="layer"
     id="layer1">
    <path
       style="fill:#00ffff;stroke:#2b0000;stroke-width:0.264583"
       d="m 36.548388,89.951612 c 2.104075,-5.649182 8.008519,-8.641358 13.046673,-11.651066 10.462237,-6.249964 21.592024,-12.338525 33.608657,-14.08048 9.551552,-1.384611 18.822412,2.532604 27.593692,5.786708 9.82298,3.644276 18.1215,10.218766 25.22781,17.968672 4.02601,4.390628 12.55339,7.046385 12.29736,12.976164 -0.24279,5.62301 1.14134,11.30185 2.01556,16.92875 0.76713,4.93761 3.14784,9.25707 2.07767,14.54807 -0.96748,4.78325 -0.0252,11.40542 -4.55764,14.2068 -6.81506,4.21218 -14.38902,8.64695 -22.40807,8.5877 -5.7564,-0.0425 -10.99474,2.28816 -16.94915,2.55441 -11.825254,0.52877 -23.632842,-1.23011 -34.834251,-5.8343 -6.076788,-2.49778 -11.414107,-6.09465 -16.870458,-9.63632 -4.377999,-2.84172 -8.322786,-6.79973 -10.194205,-11.69246 -3.219869,-8.41818 -5.24285,-17.23907 -8.469093,-25.64678 -0.991719,-2.58446 -1.695693,-9.018192 -0.874879,-13.064257 0,0 -0.360309,-0.926142 -0.360309,-0.926142 z"
       id="path5"
       sodipodi:nodetypes="caaaaaazzaaazassszazaaszsaaaaassaassssscsssssssc"
       inkscape:path-effect="#path-effect6"
       inkscape:original-d="m 36.548388,89.951612 c 0,0 0.243284,-1.115868 0.532257,-1.596774 1.723644,-2.868465 4.2292,-5.283689 6.919354,-7.274195 1.91348,-1.415827 4.310984,-2.02919 6.387097,-3.193547 0.486619,-0.272913 0.933949,-0.612035 1.419355,-0.887098 2.600283,-1.473491 5.259264,-2.852162 7.98387,-4.080644 5.155954,-2.324739 10.386607,-4.539912 15.790323,-6.209679 C 79.637909,65.455966 81.832272,63.74284 88,63.870966 c 6.167727,0.128125 16.9151,3.735081 23.41935,6.387097 6.50425,2.652016 10.88893,5.101019 15.61291,8.69355 4.17751,3.17695 7.36481,7.422565 11,11.177418 2.38641,2.464967 4.73454,4.964721 7.09677,7.451614 1.06603,1.122293 2.86362,2.549215 3.19355,3.370965 0.32993,0.82175 -0.004,0.47316 0,0.70968 0.0296,1.65666 -0.0154,3.32147 0.17742,4.96774 0,0 0.67877,2.94244 0.8871,4.43548 l 1.06451,7.62904 c 0.34072,2.44181 1.72151,5.70517 2.12903,7.09677 0.40752,1.3916 0.32172,0.81349 0.35484,1.24194 0.0367,0.47526 0.0153,-0.2942 -0.17742,1.41935 -0.19275,1.71355 -0.42423,5.93432 -0.88709,8.87097 -0.34836,2.2102 -1.18152,4.3405 -1.41936,6.56452 -0.0126,0.11764 0.0775,0.26543 0,0.35483 -3.21792,3.71294 -7.50714,5.11137 -11.53226,6.91936 -4.02512,1.80799 -9.3511,3.33438 -12.41935,3.90322 -3.06825,0.56884 -3.84953,-0.13624 -5.67742,0.35484 -0.76919,0.20665 -1.37541,0.80934 -2.12903,1.06452 -1.48023,0.50123 -3.05295,0.73854 -4.61291,0.8871 -7.41613,0.70625 -14.945531,0.771 -22.354836,0 -3.429492,-0.35687 -6.861181,-1.01087 -10.112901,-2.12904 -6.118145,-2.10385 -12.227448,-5.30051 -17.387096,-8.51613 -0.643993,-0.40135 -2.219748,-1.82862 -3.016131,-2.30645 -0.160364,-0.0962 -0.36146,-0.10207 -0.532257,-0.17742 -2.111956,-0.93173 -4.213407,-1.97188 -6.032259,-3.37096 -1.897398,-1.4595 -1.971067,-1.72039 -4.96774,-5.14516 -0.249365,-0.28499 -0.656214,-0.40953 -0.887098,-0.70968 -0.371242,-0.48262 -0.887097,-1.59678 -0.887097,-1.59678 -2.263892,-4.79412 -2.047246,-4.52014 -3.725807,-9.40322 -1.015299,-2.9536 -1.919489,-5.9466 -3.016128,-8.87097 -0.09287,-0.24764 -0.278138,-0.45656 -0.354838,-0.70968 -0.782207,-2.58127 -1.343716,-5.22612 -2.129034,-7.80645 -1.275159,-4.18981 0.03251,1.04965 -0.709676,-2.66129 -0.09734,-0.4867 -0.438314,-0.94963 -0.532259,-1.41935 -0.207079,-1.03541 -0.223727,-2.14466 -0.354838,-3.193553 -0.0232,-0.185571 -0.154223,-0.346686 -0.177419,-0.532257 -0.104249,-0.833977 -0.121936,-1.985153 0,-2.838709 0.119147,-0.834033 0.575913,-3.196341 0.354838,-4.080648 -0.205378,-0.821507 -0.518888,-0.997669 -0.709676,-1.951611 z"
       transform="matrix(1.2513187,0,0,1.2869024,-30.970903,-27.720062)" />
    <circle
       style="fill:#1a1a1a;stroke:#2b0000;stroke-width:0.264583"
       id="path6"
       cx="37.080647"
       cy="78.951614"
       r="0.7096774" />
    <circle
       style="fill:#1a1a1a;stroke:#2b0000;stroke-width:0.264583"
       id="path6-7"
       cx="55.395599"
       cy="78.638809"
       r="0.7096774" />
    <circle
       style="fill:#1a1a1a;stroke:#2b0000;stroke-width:0.264583"
       id="path6-7-0"
       cx="54.553631"
       cy="132.30098"
       r="0.7096774" />
    <g
       inkscape:label=""
       transform="translate(31.2116,76.1229)"
       id="g7"
       style="display:inline;fill:#008080">
      <g
         fill="#000000"
         fill-opacity="1"
         id="g3"
         transform="matrix(0.352778,0,0,0.352778,-0.896011,-0.625255)"
         style="fill:#1a1a1a">
        <g
           id="use2"
           transform="translate(1.993,13.619)"
           style="fill:#1a1a1a">
          <path
             d="m 7.28125,-5.40625 c 0.1875,0 0.671875,0 0.671875,-0.453125 0,-0.328125 -0.28125,-0.328125 -0.53125,-0.328125 H 4.25 c -2.15625,0 -3.703125,2.40625 -3.703125,4.09375 0,1.21875 0.78125,2.234375 2.078125,2.234375 1.6875,0 3.546875,-1.8125 3.546875,-3.96875 0,-0.5625 -0.140625,-1.109375 -0.484375,-1.578125 z m -4.640625,5.265625 c -0.734375,0 -1.265625,-0.5625 -1.265625,-1.546875 0,-0.859375 0.515625,-3.71875 2.625,-3.71875 0.625,0 1.3125,0.296875 1.3125,1.40625 0,0.5 -0.234375,1.703125 -0.734375,2.53125 -0.515625,0.859375 -1.296875,1.328125 -1.9375,1.328125 z m 0,0"
             id="path4"
             style="fill:#1a1a1a" />
        </g>
      </g>
      <g
         fill="#000000"
         fill-opacity="1"
         id="g4"
         transform="matrix(0.352778,0,0,0.352778,-0.896011,-0.625255)"
         style="fill:#008080">
        <g
           id="use3"
           transform="translate(10.491,8.4130001)"
           style="fill:#008080">
          <path
             d="m 4.578125,-3.1875 c 0,-0.796875 -0.046875,-1.59375 -0.390625,-2.328125 -0.453125,-0.96875 -1.28125,-1.125 -1.6875,-1.125 -0.609375,0 -1.328125,0.265625 -1.75,1.1875 -0.3125,0.6875 -0.359375,1.46875 -0.359375,2.265625 0,0.75 0.03125,1.640625 0.453125,2.40625 0.421875,0.796875 1.15625,1 1.640625,1 0.53125,0 1.296875,-0.203125 1.734375,-1.15625 0.3125,-0.6875 0.359375,-1.46875 0.359375,-2.25 z M 2.484375,0 C 2.09375,0 1.5,-0.25 1.328125,-1.203125 1.21875,-1.796875 1.21875,-2.71875 1.21875,-3.3125 c 0,-0.640625 0,-1.296875 0.078125,-1.828125 0.1875,-1.1875 0.9375,-1.28125 1.1875,-1.28125 0.328125,0 0.984375,0.1875 1.171875,1.171875 0.109375,0.5625 0.109375,1.3125 0.109375,1.9375 0,0.75 0,1.421875 -0.109375,2.0625 C 3.5,-0.296875 2.9375,0 2.484375,0 Z m 0,0"
             id="path7"
             style="fill:#008080" />
        </g>
      </g>
      <g
         inkscape:label=""
         transform="translate(20.206792,27.874533)"
         id="g12"
         style="fill:#ff0000">
        <g
           fill="#000000"
           fill-opacity="1"
           id="g9"
           transform="matrix(0.352778,0,0,0.352778,-0.896011,-0.625255)"
           style="fill:#ff0000">
          <g
             id="g8"
             transform="translate(1.993,13.619)"
             style="fill:#ff0000">
            <path
               d="m 7.28125,-5.40625 c 0.1875,0 0.671875,0 0.671875,-0.453125 0,-0.328125 -0.28125,-0.328125 -0.53125,-0.328125 H 4.25 c -2.15625,0 -3.703125,2.40625 -3.703125,4.09375 0,1.21875 0.78125,2.234375 2.078125,2.234375 1.6875,0 3.546875,-1.8125 3.546875,-3.96875 0,-0.5625 -0.140625,-1.109375 -0.484375,-1.578125 z m -4.640625,5.265625 c -0.734375,0 -1.265625,-0.5625 -1.265625,-1.546875 0,-0.859375 0.515625,-3.71875 2.625,-3.71875 0.625,0 1.3125,0.296875 1.3125,1.40625 0,0.5 -0.234375,1.703125 -0.734375,2.53125 -0.515625,0.859375 -1.296875,1.328125 -1.9375,1.328125 z m 0,0"
               id="path8"
               style="fill:#ff0000" />
          </g>
        </g>
        <g
           fill="#000000"
           fill-opacity="1"
           id="g11"
           transform="matrix(0.352778,0,0,0.352778,-0.896011,-0.625255)"
           style="fill:#ff0000">
          <g
             id="g10"
             transform="translate(10.491,8.4130001)"
             style="fill:#ff0000">
            <path
               d="m 2.9375,-6.375 c 0,-0.25 0,-0.265625 -0.234375,-0.265625 C 2.078125,-6 1.203125,-6 0.890625,-6 v 0.3125 c 0.203125,0 0.78125,0 1.296875,-0.265625 v 5.171875 c 0,0.359375 -0.03125,0.46875 -0.921875,0.46875 h -0.3125 V 0 c 0.34375,-0.03125 1.203125,-0.03125 1.609375,-0.03125 0.390625,0 1.265625,0 1.609375,0.03125 v -0.3125 h -0.3125 c -0.90625,0 -0.921875,-0.109375 -0.921875,-0.46875 z m 0,0"
               id="path9"
               style="fill:#ff0000" />
          </g>
        </g>
      </g>
      <circle
         style="fill:#008080;stroke:#2b0000;stroke-width:0.264583"
         id="path6-7-6"
         cx="75.819214"
         cy="19.651932"
         r="0.7096774" />
      <circle
         style="fill:#008080;stroke:#2b0000;stroke-width:0.264583"
         id="path6-7-69"
         cx="58.437023"
         cy="61.075317"
         r="0.7096774" />
      <circle
         style="fill:#008080;stroke:#2b0000;stroke-width:0.264583"
         id="path6-7-4"
         cx="104.99939"
         cy="62.759254"
         r="0.7096774" />
      <path
         style="fill:#008080;stroke:#000000;stroke-width:0.264583;opacity:0.64"
         d="m 75.819214,19.651932 -9.805007,23.983232 -7.577184,17.440153 46.562367,1.683936 z"
         id="path13"
         sodipodi:nodetypes="ccccc" />
    </g>
    <path
       style="fill:none;stroke:#808000;stroke-width:0.264583"
       d="m 55.395597,78.638809 c 2.583437,0.982343 3.82048,3.657932 5.037383,5.955709 1.101915,2.080656 1.950999,4.449714 1.897868,6.803546 -0.06398,2.834478 -1.865234,5.357712 -2.652752,8.081344 -0.694193,2.400872 -1.824115,7.272362 -1.824115,7.272362 -0.706666,2.11962 -2.59697,6.17941 -2.59697,6.17941 -0.776571,1.84783 -1.523147,5.81702 -1.523147,5.81702 0,0 0.124033,4.44524 0.216679,6.68354 0.09265,2.2383 -0.88405,8.63707 0.339779,6.74568 0.183124,-0.28301 0.512546,0.41287 0.293717,0.25232 l -0.03041,-0.12876"
       id="path12"
       sodipodi:nodetypes="caaassczscc" />
    <g
       inkscape:label=""
       transform="translate(109.18006,122.33988)"
       id="g18"
       style="fill:#000000">
      <g
         fill="#000000"
         fill-opacity="1"
         id="g15"
         transform="matrix(0.352778,0,0,0.352778,-0.896011,-0.625255)"
         style="fill:#000000">
        <g
           id="g14"
           transform="translate(1.993,13.619)"
           style="fill:#000000">
          <path
             d="m 7.28125,-5.40625 c 0.1875,0 0.671875,0 0.671875,-0.453125 0,-0.328125 -0.28125,-0.328125 -0.53125,-0.328125 H 4.25 c -2.15625,0 -3.703125,2.40625 -3.703125,4.09375 0,1.21875 0.78125,2.234375 2.078125,2.234375 1.6875,0 3.546875,-1.8125 3.546875,-3.96875 0,-0.5625 -0.140625,-1.109375 -0.484375,-1.578125 z m -4.640625,5.265625 c -0.734375,0 -1.265625,-0.5625 -1.265625,-1.546875 0,-0.859375 0.515625,-3.71875 2.625,-3.71875 0.625,0 1.3125,0.296875 1.3125,1.40625 0,0.5 -0.234375,1.703125 -0.734375,2.53125 -0.515625,0.859375 -1.296875,1.328125 -1.9375,1.328125 z m 0,0"
             id="path14"
             style="fill:#000000" />
        </g>
      </g>
      <g
         fill="#000000"
         fill-opacity="1"
         id="g17"
         transform="matrix(0.352778,0,0,0.352778,-0.896011,-0.625255)"
         style="fill:#000000">
        <g
           id="g16"
           transform="translate(10.491,8.4130001)"
           style="fill:#000000">
          <path
             d="m 1.265625,-0.765625 1.0625,-1.03125 c 1.546875,-1.375 2.140625,-1.90625 2.140625,-2.90625 0,-1.140625 -0.890625,-1.9375 -2.109375,-1.9375 -1.125,0 -1.859375,0.921875 -1.859375,1.8125 0,0.546875 0.5,0.546875 0.53125,0.546875 0.171875,0 0.515625,-0.109375 0.515625,-0.53125 0,-0.25 -0.1875,-0.515625 -0.53125,-0.515625 -0.078125,0 -0.09375,0 -0.125,0.015625 0.21875,-0.65625 0.765625,-1.015625 1.34375,-1.015625 0.90625,0 1.328125,0.8125 1.328125,1.625 C 3.5625,-3.90625 3.078125,-3.125 2.515625,-2.5 l -1.90625,2.125 C 0.5,-0.265625 0.5,-0.234375 0.5,0 H 4.203125 L 4.46875,-1.734375 H 4.234375 C 4.171875,-1.4375 4.109375,-1 4,-0.84375 3.9375,-0.765625 3.28125,-0.765625 3.0625,-0.765625 Z m 0,0"
             id="path15"
             style="fill:#000000" />
        </g>
      </g>
    </g>
  </g>
</svg>
