<?xml version="1.0" encoding="UTF-8" standalone="no"?>
<!-- Created with Inkscape (http://www.inkscape.org/) -->

<svg
   width="210mm"
   height="297mm"
   viewBox="0 0 210 297"
   version="1.1"
   id="svg1"
   inkscape:version="1.3.2 (091e20ef0f, 2023-11-25)"
   sodipodi:docname="manifoldE.svg"
   xmlns:inkscape="http://www.inkscape.org/namespaces/inkscape"
   xmlns:sodipodi="http://sodipodi.sourceforge.net/DTD/sodipodi-0.dtd"
   xmlns="http://www.w3.org/2000/svg"
   xmlns:svg="http://www.w3.org/2000/svg">
  <sodipodi:namedview
     id="namedview1"
     pagecolor="#ffffff"
     bordercolor="#000000"
     borderopacity="0.25"
     inkscape:showpageshadow="2"
     inkscape:pageopacity="0.0"
     inkscape:pagecheckerboard="0"
     inkscape:deskcolor="#d1d1d1"
     inkscape:document-units="mm"
     inkscape:zoom="1.1901796"
     inkscape:cx="349.94719"
     inkscape:cy="494.0431"
     inkscape:window-width="1600"
     inkscape:window-height="872"
     inkscape:window-x="0"
     inkscape:window-y="0"
     inkscape:window-maximized="1"
     inkscape:current-layer="layer1" />
  <defs
     id="defs1">
    <inkscape:path-effect
       effect="simplify"
       id="path-effect2"
       is_visible="true"
       lpeversion="1.3"
       threshold="100"
       steps="1"
       smooth_angles="360"
       helper_size="10"
       simplify_individual_paths="false"
       simplify_just_coalesce="false" />
    <inkscape:path-effect
       effect="simplify"
       id="path-effect1"
       is_visible="true"
       lpeversion="1.3"
       threshold="374.419"
       steps="1"
       smooth_angles="360"
       helper_size="0"
       simplify_individual_paths="false"
       simplify_just_coalesce="false" />
  </defs>
  <g
     inkscape:label="Layer 1"
     inkscape:groupmode="layer"
     id="layer1">
    <path
       style="fill:#00ffff;stroke:#ff0000;stroke-width:0.309999"
       d="m 26.07399,144.63571 c -0.766927,-15.44707 9.632017,-28.58539 20.209029,-38.80757 11.222445,-10.845962 28.169058,-16.855723 43.050106,-13.045344 11.085275,2.838448 22.004545,8.126824 29.957895,16.320544 12.20457,12.57344 18.53778,30.97077 15.92451,48.558 -1.21145,8.15305 -6.89371,15.53661 -15.62992,17.22032 -8.30873,1.60133 -16.63484,-0.17972 -24.326817,-3.58003 -12.812353,-5.66382 -26.454704,3.56546 -39.492735,-1.62905 -10.708997,-4.26659 -20.067124,-11.59816 -27.451792,-20.2039 -1.166807,-1.35974 -2.125433,-3.00679 -2.240276,-4.83297 z"
       id="path1"
       transform="translate(8.3512143,-15.065532)"
       sodipodi:nodetypes="aaaaaaaaaaaa"
       inkscape:path-effect="#path-effect2"
       inkscape:original-d="m 26.07399,144.63571 c -1.118159,-16.2432 11.610223,-32.22428 24.379382,-42.32579 9.205705,-7.282508 22.002538,-10.190506 33.739998,-10.081254 6.904743,0.06427 13.642449,3.047794 19.73425,6.298886 7.56563,4.037648 15.12873,9.048098 20.14136,16.006178 6.79217,9.42826 11.64817,21.13867 11.92985,32.75531 0.19899,8.20653 -1.29126,17.92421 -7.29636,23.52114 -4.90469,4.57131 -12.8795,4.75447 -19.58228,4.59453 -7.00945,-0.16725 -13.263376,-4.94788 -20.225739,-5.77598 -9.780936,-1.16335 -20.013452,3.78506 -29.52431,1.22309 -9.786219,-2.63614 -18.14666,-9.51959 -25.636499,-16.34759 -3.077287,-2.80537 -7.373678,-5.71425 -7.659652,-9.86852 z" />
    <g
       inkscape:label=""
       transform="translate(88.156603,116.06127)"
       id="g3">
      <g
         fill="#000000"
         fill-opacity="1"
         id="g2"
         transform="matrix(0.352778,0,0,0.352778,-0.934597,-0.715918)">
        <g
           id="use1"
           transform="translate(1.993,11.795)">
          <path
             d="m 9.96875,-3.328125 c 0.015625,-0.046875 0.0625,-0.140625 0.0625,-0.203125 0,-0.0625 -0.0625,-0.140625 -0.140625,-0.140625 -0.0625,0 -0.09375,0.015625 -0.140625,0.0625 -0.03125,0.015625 -0.03125,0.03125 -0.15625,0.328125 -0.84375,2 -1.453125,2.859375 -3.75,2.859375 H 3.75 c -0.203125,0 -0.234375,0 -0.328125,-0.015625 -0.15625,0 -0.171875,-0.03125 -0.171875,-0.15625 0,-0.09375 0.03125,-0.1875 0.0625,-0.3125 L 4.296875,-4.859375 H 5.71875 c 1.125,0 1.203125,0.234375 1.203125,0.671875 0,0.140625 0,0.265625 -0.09375,0.703125 -0.03125,0.0625 -0.046875,0.109375 -0.046875,0.15625 0,0.09375 0.078125,0.140625 0.15625,0.140625 0.140625,0 0.140625,-0.09375 0.203125,-0.296875 l 0.8125,-3.328125 c 0,-0.078125 -0.046875,-0.140625 -0.140625,-0.140625 -0.125,0 -0.140625,0.046875 -0.203125,0.25 -0.28125,1.109375 -0.5625,1.421875 -1.84375,1.421875 H 4.40625 L 5.296875,-8.8125 c 0.125,-0.5 0.15625,-0.546875 0.734375,-0.546875 h 2.0625 c 1.765625,0 2.125,0.484375 2.125,1.578125 0,0 0,0.40625 -0.0625,0.875 -0.01563,0.0625 -0.03125,0.15625 -0.03125,0.171875 0,0.125 0.07813,0.171875 0.15625,0.171875 0.109375,0 0.15625,-0.0625 0.1875,-0.328125 l 0.296875,-2.5 c 0,-0.046875 0.03125,-0.1875 0.03125,-0.21875 0,-0.15625 -0.125,-0.15625 -0.390625,-0.15625 h -7 c -0.265625,0 -0.40625,0 -0.40625,0.25 0,0.15625 0.09375,0.15625 0.34375,0.15625 0.890625,0 0.890625,0.109375 0.890625,0.265625 0,0.078125 -0.015625,0.125 -0.0625,0.28125 l -1.9375,7.75 c -0.125,0.5 -0.15625,0.640625 -1.15625,0.640625 -0.28125,0 -0.421875,0 -0.421875,0.265625 C 0.65625,0 0.75,0 1.03125,0 H 8.234375 C 8.546875,0 8.5625,-0.015625 8.65625,-0.25 Z m 0,0"
             id="path2" />
        </g>
      </g>
    </g>
    <g
       inkscape:label=""
       transform="translate(42.042644,146.63965)"
       id="g6">
      <g
         fill="#000000"
         fill-opacity="1"
         id="g4"
         transform="matrix(0.352778,0,0,0.352778,-0.896011,-0.601486)">
        <g
           id="use2"
           transform="translate(1.993,11.955)">
          <path
             d="M 6.515625,-4.796875 C 6.421875,-5.59375 5.921875,-6.5625 4.640625,-6.5625 c -2.03125,0 -4.09375,2.0625 -4.09375,4.34375 0,0.875 0.59375,2.515625 2.546875,2.515625 3.390625,0 4.84375,-4.9375 4.84375,-6.890625 0,-2.0625 -1.171875,-3.65625 -3,-3.65625 -2.078125,0 -2.703125,1.8125 -2.703125,2.203125 0,0.125 0.09375,0.4375 0.484375,0.4375 0.515625,0 0.71875,-0.453125 0.71875,-0.703125 C 3.4375,-8.75 3,-8.75 2.8125,-8.75 3.40625,-9.8125 4.484375,-9.90625 4.875,-9.90625 c 1.265625,0 2.0625,1 2.0625,2.609375 0,0.90625 -0.265625,1.96875 -0.40625,2.5 z m -3.375,4.703125 c -1.34375,0 -1.578125,-1.046875 -1.578125,-1.65625 0,-0.625 0.40625,-2.109375 0.625,-2.640625 0.171875,-0.421875 1,-1.875 2.484375,-1.875 1.3125,0 1.609375,1.125 1.609375,1.90625 0,1.0625 -0.9375,4.265625 -3.140625,4.265625 z m 0,0"
             id="path4" />
        </g>
      </g>
      <g
         fill="#000000"
         fill-opacity="1"
         id="g5"
         transform="matrix(0.352778,0,0,0.352778,-0.896011,-0.601486)">
        <g
           id="use3"
           transform="translate(10.183246,11.955)">
          <path
             d="m 9.96875,-3.328125 c 0.015625,-0.046875 0.0625,-0.140625 0.0625,-0.203125 0,-0.0625 -0.0625,-0.140625 -0.140625,-0.140625 -0.0625,0 -0.09375,0.015625 -0.140625,0.0625 -0.03125,0.015625 -0.03125,0.03125 -0.15625,0.328125 -0.84375,2 -1.453125,2.859375 -3.75,2.859375 H 3.75 c -0.203125,0 -0.234375,0 -0.328125,-0.015625 -0.15625,0 -0.171875,-0.03125 -0.171875,-0.15625 0,-0.09375 0.03125,-0.1875 0.0625,-0.3125 L 4.296875,-4.859375 H 5.71875 c 1.125,0 1.203125,0.234375 1.203125,0.671875 0,0.140625 0,0.265625 -0.09375,0.703125 -0.03125,0.0625 -0.046875,0.109375 -0.046875,0.15625 0,0.09375 0.078125,0.140625 0.15625,0.140625 0.140625,0 0.140625,-0.09375 0.203125,-0.296875 l 0.8125,-3.328125 c 0,-0.078125 -0.046875,-0.140625 -0.140625,-0.140625 -0.125,0 -0.140625,0.046875 -0.203125,0.25 -0.28125,1.109375 -0.5625,1.421875 -1.84375,1.421875 H 4.40625 L 5.296875,-8.8125 c 0.125,-0.5 0.15625,-0.546875 0.734375,-0.546875 h 2.0625 c 1.765625,0 2.125,0.484375 2.125,1.578125 0,0 0,0.40625 -0.0625,0.875 -0.01563,0.0625 -0.03125,0.15625 -0.03125,0.171875 0,0.125 0.07813,0.171875 0.15625,0.171875 0.109375,0 0.15625,-0.0625 0.1875,-0.328125 l 0.296875,-2.5 c 0,-0.046875 0.03125,-0.1875 0.03125,-0.21875 0,-0.15625 -0.125,-0.15625 -0.390625,-0.15625 h -7 c -0.265625,0 -0.40625,0 -0.40625,0.25 0,0.15625 0.09375,0.15625 0.34375,0.15625 0.890625,0 0.890625,0.109375 0.890625,0.265625 0,0.078125 -0.015625,0.125 -0.0625,0.28125 l -1.9375,7.75 c -0.125,0.5 -0.15625,0.640625 -1.15625,0.640625 -0.28125,0 -0.421875,0 -0.421875,0.265625 C 0.65625,0 0.75,0 1.03125,0 H 8.234375 C 8.546875,0 8.5625,-0.015625 8.65625,-0.25 Z m 0,0"
             id="path5" />
        </g>
      </g>
    </g>
  </g>
</svg>
